<svg xmlns="http://www.w3.org/2000/svg" viewBox="0 0 720 212" width="100%" font-family="-apple-system,Segoe UI,Roboto,sans-serif">
<rect x="0" y="0" width="720" height="212" rx="10" fill="#ffffff"/>
<text x="20" y="26" font-size="13" font-weight="700" fill="#1d1c1a">protocol-301 frame structure  ·  not to scale</text>
<text x="20" y="74" font-size="12.5" font-weight="700" fill="#1d1c1a">0101</text>
<text x="20" y="89" font-size="11" fill="#6b6a66">grid</text>
<rect x="70.0" y="62" width="53.6" height="34" rx="3" fill="#D3D1C7" stroke="#9a988f" stroke-width="1"/>
<text x="96.8" y="57" text-anchor="middle" font-size="10.5" fill="#6b6a66">0–1</text>
<text x="96.8" y="83.0" text-anchor="middle" font-size="12" font-weight="600" fill="#2b2a27">0x0101</text>
<rect x="123.6" y="62" width="80.4" height="34" rx="3" fill="#CECBF6" stroke="#9a988f" stroke-width="1"/>
<text x="163.8" y="57" text-anchor="middle" font-size="10.5" fill="#6b6a66">2–5</text>
<text x="163.8" y="83.0" text-anchor="middle" font-size="12" font-weight="600" fill="#2b2a27">map_id</text>
<rect x="204.0" y="62" width="37.5" height="34" rx="3" fill="#9FE1CB" stroke="#9a988f" stroke-width="1"/>
<text x="222.8" y="57" text-anchor="middle" font-size="10.5" fill="#6b6a66">6</text>
<text x="222.8" y="83.0" text-anchor="middle" font-size="12" font-weight="600" fill="#2b2a27">seg</text>
<rect x="241.6" y="62" width="53.6" height="34" rx="3" fill="#B5D4F4" stroke="#9a988f" stroke-width="1"/>
<text x="268.4" y="57" text-anchor="middle" font-size="10.5" fill="#6b6a66">7–8</text>
<text x="268.4" y="83.0" text-anchor="middle" font-size="12" font-weight="600" fill="#2b2a27">width</text>
<rect x="295.2" y="62" width="56.3" height="34" rx="3" fill="#B5D4F4" stroke="#9a988f" stroke-width="1"/>
<text x="323.3" y="57" text-anchor="middle" font-size="10.5" fill="#6b6a66">9–10</text>
<text x="323.3" y="83.0" text-anchor="middle" font-size="12" font-weight="600" fill="#2b2a27">height</text>
<rect x="351.5" y="62" width="91.1" height="34" rx="3" fill="#E7E5DD" stroke="#9a988f" stroke-width="1"/>
<text x="397.1" y="57" text-anchor="middle" font-size="10.5" fill="#6b6a66">11–24</text>
<text x="397.1" y="83.0" text-anchor="middle" font-size="12" font-weight="600" fill="#2b2a27">header</text>
<rect x="442.6" y="62" width="72.4" height="34" rx="3" fill="#C0DD97" stroke="#9a988f" stroke-width="1"/>
<text x="478.8" y="57" text-anchor="middle" font-size="10.5" fill="#6b6a66">25–26</text>
<text x="478.8" y="83.0" text-anchor="middle" font-size="12" font-weight="600" fill="#2b2a27">declared</text>
<rect x="515.0" y="62" width="61.7" height="34" rx="3" fill="#C0DD97" stroke="#9a988f" stroke-width="1"/>
<text x="545.9" y="57" text-anchor="middle" font-size="10.5" fill="#6b6a66">27–28</text>
<text x="545.9" y="83.0" text-anchor="middle" font-size="12" font-weight="600" fill="#2b2a27">compr.</text>
<rect x="576.7" y="62" width="123.3" height="34" rx="3" fill="#FAC775" stroke="#9a988f" stroke-width="1" stroke-dasharray="3 3"/>
<text x="638.3" y="57" text-anchor="middle" font-size="10.5" fill="#6b6a66">29 …</text>
<text x="638.3" y="83.0" text-anchor="middle" font-size="12" font-weight="600" fill="#2b2a27">LZ4 grid  …</text>
<text x="20" y="168" font-size="12.5" font-weight="700" fill="#1d1c1a">0201</text>
<text x="20" y="183" font-size="11" fill="#6b6a66">path</text>
<rect x="70.0" y="156" width="73.3" height="34" rx="3" fill="#D3D1C7" stroke="#9a988f" stroke-width="1"/>
<text x="106.6" y="151" text-anchor="middle" font-size="10.5" fill="#6b6a66">0–1</text>
<text x="106.6" y="177.0" text-anchor="middle" font-size="12" font-weight="600" fill="#2b2a27">0x0201</text>
<rect x="143.3" y="156" width="40.3" height="34" rx="3" fill="#ECEAE2" stroke="#9a988f" stroke-width="1"/>
<text x="163.4" y="151" text-anchor="middle" font-size="10.5" fill="#6b6a66">2</text>
<text x="163.4" y="177.0" text-anchor="middle" font-size="12" font-weight="600" fill="#2b2a27">?</text>
<rect x="183.5" y="156" width="76.9" height="34" rx="3" fill="#9FE1CB" stroke="#9a988f" stroke-width="1"/>
<text x="222.0" y="151" text-anchor="middle" font-size="10.5" fill="#6b6a66">3</text>
<text x="222.0" y="177.0" text-anchor="middle" font-size="12" font-weight="600" fill="#2b2a27">counter</text>
<rect x="260.5" y="156" width="73.3" height="34" rx="3" fill="#ECEAE2" stroke="#9a988f" stroke-width="1"/>
<text x="297.1" y="151" text-anchor="middle" font-size="10.5" fill="#6b6a66">4–7</text>
<text x="297.1" y="177.0" text-anchor="middle" font-size="12" font-weight="600" fill="#2b2a27">?</text>
<rect x="333.7" y="156" width="84.2" height="34" rx="3" fill="#C0DD97" stroke="#9a988f" stroke-width="1"/>
<text x="375.8" y="151" text-anchor="middle" font-size="10.5" fill="#6b6a66">8–9</text>
<text x="375.8" y="177.0" text-anchor="middle" font-size="12" font-weight="600" fill="#2b2a27">count</text>
<rect x="418.0" y="156" width="91.6" height="34" rx="3" fill="#ECEAE2" stroke="#9a988f" stroke-width="1"/>
<text x="463.8" y="151" text-anchor="middle" font-size="10.5" fill="#6b6a66">10–15</text>
<text x="463.8" y="177.0" text-anchor="middle" font-size="12" font-weight="600" fill="#2b2a27">tail</text>
<rect x="509.5" y="156" width="190.5" height="34" rx="3" fill="#FAC775" stroke="#9a988f" stroke-width="1" stroke-dasharray="3 3"/>
<text x="604.8" y="151" text-anchor="middle" font-size="10.5" fill="#6b6a66">16 …</text>
<text x="604.8" y="177.0" text-anchor="middle" font-size="12" font-weight="600" fill="#2b2a27">points  …</text>
</svg>