<svg xmlns="http://www.w3.org/2000/svg" viewBox="0 0 720 212" width="100%" font-family="-apple-system,Segoe UI,Roboto,sans-serif">
<rect x="0" y="0" width="720" height="212" rx="10" fill="#ffffff"/>
<text x="20" y="26" font-size="13" font-weight="700" fill="#1d1c1a">protocol-301 frame structure  ·  not to scale</text>
<rect x="468" y="17" width="11" height="11" rx="2" fill="#F4A259" stroke="#9a988f"/>
<text x="484" y="26" font-size="10" fill="#6b6a66">newly decoded — map origin &amp; live heading</text>
<text x="20" y="74" font-size="12.5" font-weight="700" fill="#1d1c1a">0101</text>
<text x="20" y="89" font-size="11" fill="#6b6a66">grid</text>
<rect x="70.0" y="62" width="54.0" height="34" rx="3" fill="#D3D1C7" stroke="#9a988f" stroke-width="1"/>
<text x="97.0" y="57" text-anchor="middle" font-size="10.5" fill="#6b6a66">0–1</text>
<text x="97.0" y="83.0" text-anchor="middle" font-size="12" font-weight="600" fill="#2b2a27">0x0101</text>
<rect x="124.0" y="62" width="56.0" height="34" rx="3" fill="#CECBF6" stroke="#9a988f" stroke-width="1"/>
<text x="152.0" y="57" text-anchor="middle" font-size="10.5" fill="#6b6a66">2–5</text>
<text x="152.0" y="83.0" text-anchor="middle" font-size="12" font-weight="600" fill="#2b2a27">map_id</text>
<rect x="180.0" y="62" width="28.0" height="34" rx="3" fill="#9FE1CB" stroke="#9a988f" stroke-width="1"/>
<text x="194.0" y="57" text-anchor="middle" font-size="10.5" fill="#6b6a66">6</text>
<text x="194.0" y="83.0" text-anchor="middle" font-size="12" font-weight="600" fill="#2b2a27">seg</text>
<rect x="208.0" y="62" width="48.0" height="34" rx="3" fill="#B5D4F4" stroke="#9a988f" stroke-width="1"/>
<text x="232.0" y="57" text-anchor="middle" font-size="10.5" fill="#6b6a66">7–8</text>
<text x="232.0" y="83.0" text-anchor="middle" font-size="12" font-weight="600" fill="#2b2a27">width</text>
<rect x="256.0" y="62" width="52.0" height="34" rx="3" fill="#B5D4F4" stroke="#9a988f" stroke-width="1"/>
<text x="282.0" y="57" text-anchor="middle" font-size="10.5" fill="#6b6a66">9–10</text>
<text x="282.0" y="83.0" text-anchor="middle" font-size="12" font-weight="600" fill="#2b2a27">height</text>
<rect x="308.0" y="62" width="70.0" height="34" rx="3" fill="#F4A259" stroke="#9a988f" stroke-width="1"/>
<text x="343.0" y="57" text-anchor="middle" font-size="10.5" fill="#6b6a66">11–14</text>
<text x="343.0" y="83.0" text-anchor="middle" font-size="12" font-weight="700" fill="#1d1c1a">origin x/y</text>
<rect x="378.0" y="62" width="36.0" height="34" rx="3" fill="#DCEBB5" stroke="#9a988f" stroke-width="1"/>
<text x="396.0" y="57" text-anchor="middle" font-size="10.5" fill="#6b6a66">15–16</text>
<text x="396.0" y="83.0" text-anchor="middle" font-size="12" font-weight="600" fill="#2b2a27">res</text>
<rect x="414.0" y="62" width="78.0" height="34" rx="3" fill="#CFE8DD" stroke="#9a988f" stroke-width="1"/>
<text x="453.0" y="57" text-anchor="middle" font-size="10.5" fill="#6b6a66">17–22</text>
<text x="453.0" y="83.0" text-anchor="middle" font-size="12" font-weight="600" fill="#2b2a27">dock x/y/φ</text>
<rect x="492.0" y="62" width="64.0" height="34" rx="3" fill="#C0DD97" stroke="#9a988f" stroke-width="1"/>
<text x="524.0" y="57" text-anchor="middle" font-size="10.5" fill="#6b6a66">23–26</text>
<text x="524.0" y="83.0" text-anchor="middle" font-size="12" font-weight="600" fill="#2b2a27">declared</text>
<rect x="556.0" y="62" width="50.0" height="34" rx="3" fill="#C0DD97" stroke="#9a988f" stroke-width="1"/>
<text x="581.0" y="57" text-anchor="middle" font-size="10.5" fill="#6b6a66">27–28</text>
<text x="581.0" y="83.0" text-anchor="middle" font-size="12" font-weight="600" fill="#2b2a27">compr.</text>
<rect x="606.0" y="62" width="94.0" height="34" rx="3" fill="#FAC775" stroke="#9a988f" stroke-width="1" stroke-dasharray="3 3"/>
<text x="653.0" y="57" text-anchor="middle" font-size="10.5" fill="#6b6a66">29 …</text>
<text x="653.0" y="83.0" text-anchor="middle" font-size="12" font-weight="600" fill="#2b2a27">LZ4 grid …</text>
<text x="20" y="168" font-size="12.5" font-weight="700" fill="#1d1c1a">0201</text>
<text x="20" y="183" font-size="11" fill="#6b6a66">path</text>
<rect x="70.0" y="156" width="70.0" height="34" rx="3" fill="#D3D1C7" stroke="#9a988f" stroke-width="1"/>
<text x="105.0" y="151" text-anchor="middle" font-size="10.5" fill="#6b6a66">0–1</text>
<text x="105.0" y="177.0" text-anchor="middle" font-size="12" font-weight="600" fill="#2b2a27">0x0201</text>
<rect x="140.0" y="156" width="68.0" height="34" rx="3" fill="#CECBF6" stroke="#9a988f" stroke-width="1"/>
<text x="174.0" y="151" text-anchor="middle" font-size="10.5" fill="#6b6a66">2–3</text>
<text x="174.0" y="177.0" text-anchor="middle" font-size="12" font-weight="600" fill="#2b2a27">epoch</text>
<rect x="208.0" y="156" width="72.0" height="34" rx="3" fill="#ECEAE2" stroke="#9a988f" stroke-width="1"/>
<text x="244.0" y="151" text-anchor="middle" font-size="10.5" fill="#6b6a66">4–7</text>
<text x="244.0" y="177.0" text-anchor="middle" font-size="12" font-weight="600" fill="#2b2a27">const</text>
<rect x="280.0" y="156" width="72.0" height="34" rx="3" fill="#C0DD97" stroke="#9a988f" stroke-width="1"/>
<text x="316.0" y="151" text-anchor="middle" font-size="10.5" fill="#6b6a66">8–9</text>
<text x="316.0" y="177.0" text-anchor="middle" font-size="12" font-weight="600" fill="#2b2a27">count</text>
<rect x="352.0" y="156" width="92.0" height="34" rx="3" fill="#F4A259" stroke="#9a988f" stroke-width="1"/>
<text x="398.0" y="151" text-anchor="middle" font-size="10.5" fill="#6b6a66">10–11</text>
<text x="398.0" y="177.0" text-anchor="middle" font-size="12" font-weight="700" fill="#1d1c1a">heading</text>
<rect x="444.0" y="156" width="66.0" height="34" rx="3" fill="#ECEAE2" stroke="#9a988f" stroke-width="1"/>
<text x="477.0" y="151" text-anchor="middle" font-size="10.5" fill="#6b6a66">12–13</text>
<text x="477.0" y="177.0" text-anchor="middle" font-size="12" font-weight="600" fill="#2b2a27">const</text>
<rect x="510.0" y="156" width="190.0" height="34" rx="3" fill="#FAC775" stroke="#9a988f" stroke-width="1" stroke-dasharray="3 3"/>
<text x="605.0" y="151" text-anchor="middle" font-size="10.5" fill="#6b6a66">14 …</text>
<text x="605.0" y="177.0" text-anchor="middle" font-size="12" font-weight="600" fill="#2b2a27">points …</text>
</svg>
